<svg width="362" height="385" viewBox="0 0 362 385" fill="none" xmlns="http://www.w3.org/2000/svg">
<path d="M294.131 227.09C286.748 232.272 279.563 237.153 272.36 242.006C271.686 242.46 270.927 242.948 270.155 243.063C267.182 243.503 263.45 245.361 261.794 241.533C260.089 237.593 263.952 236.308 266.517 234.61C282.81 223.824 296.278 210.584 302.267 191.388C305.514 180.982 306.257 170.365 305.631 159.264C305.002 148.113 303.036 137.441 299.732 127.017C294.605 110.844 288.853 94.8626 283.067 78.9088C280.783 72.6102 277.84 66.5334 274.938 60.4797C270.723 51.6857 275.222 45.19 280.439 38.9561C282.438 36.5675 284.739 34.0407 287.459 32.7669C289.743 31.6976 292.836 32.3569 295.57 32.2508C295.557 34.8518 296.342 37.8322 295.331 39.9589C294.035 42.6852 291.366 44.7946 289.16 47.0438C285.864 50.4034 283.826 53.6906 286.756 58.5799C289.014 62.349 290.398 66.6415 292.368 71.1541C303.593 64.9752 311.536 56.3681 315.091 43.9277C317.048 37.0817 317.319 30.4023 314.152 23.8306C309.942 15.0958 303.416 11.9691 294.432 15.1257C283.281 19.0432 273.983 25.6572 267.199 35.5446C265.25 38.3849 263.082 41.0749 260.735 44.2067C249.711 27.6009 233.069 20.9193 215.025 16.4013C197.098 11.9127 178.858 11.7716 160.707 13.0898C144.16 14.2915 128.016 18.2995 114.494 28.6918C109.349 32.6463 105.301 38.0281 100.168 43.3678C98.0761 40.5812 95.9604 37.6257 93.7046 34.7814C85.0287 23.8419 74.4118 15.8146 60.1604 14.1692C55.5968 13.6423 51.8677 16.1655 48.8595 20.0643C42.26 28.6178 44.0113 45.9457 50.8281 56.071C55.0509 62.3434 61.8251 68.2675 67.7753 70.8299C70.204 66.0121 72.9612 61.3216 74.8841 56.311C75.5683 54.5282 74.8484 51.5345 73.6768 49.8563C71.4763 46.7043 68.3888 44.1872 65.8419 41.2569C63.4157 38.4655 62.1208 35.3156 65.434 32.322C68.6475 29.4184 71.6729 30.9769 74.1503 33.5229C77.5713 37.0384 80.9257 40.6501 83.9838 44.4799C88.4218 50.0377 88.4849 55.8743 85.1495 62.2519C73.0268 85.4314 65.4032 110.335 58.5578 135.408C54.8782 148.885 52.8155 162.803 54.956 177.009C58.8153 202.622 72.2312 221.522 94.4155 234.494C95.5454 235.155 96.7298 236.013 97.4063 237.084C98.2149 238.364 99.3455 240.739 98.8487 241.285C97.6776 242.57 95.2517 244.113 93.9913 243.672C88.8212 241.863 83.4048 240.057 78.971 236.969C62.8123 225.716 51.1154 211.144 45.65 191.696C42.1822 179.357 42.1589 167.091 43.4254 154.638C45.8561 130.738 54.3684 108.456 61.9478 85.9342C62.2481 85.0418 62.9174 84.2736 63.2139 83.7813C56.3852 77.7152 49.0225 72.4786 43.3033 65.8285C30.5527 51.0025 26.5256 27.4284 40.0619 10.7554C46.7167 2.55847 56.4866 -0.522386 66.815 1.57207C79.7384 4.19276 89.1703 12.1236 98.2263 20.7913C100.401 22.873 102.478 22.7686 104.371 21.1071C115.238 11.5708 128.342 6.72239 142.156 4.26451C154.867 2.00287 167.823 0.594618 180.722 0.0922303C189.792 -0.261053 199.039 0.983016 208.041 2.49868C221.636 4.78763 234.972 8.31871 247.097 15.2572C251.647 17.8612 256.029 20.7602 260.736 23.6791C268.018 14.046 277.886 7.05619 289.538 2.99367C304.797 -2.32673 318.284 1.09744 325.646 19.5689C332.607 37.0361 327.856 53.3388 315.732 67.1612C310.656 72.9483 304.146 77.4773 297.776 83.0234C299.775 88.4339 302.496 94.4323 304.211 100.706C308.662 116.988 313.066 133.304 316.731 149.775C319.68 163.024 319.317 176.712 316.107 189.753C312.605 203.977 304.846 216.353 294.131 227.09Z" fill="#F6F5F4"/>
<path d="M0.869487 334.36C0.598972 331.456 0.277454 329.009 0.260051 326.56C0.187374 316.327 0.197193 306.094 0.193447 295.861C0.1889 283.413 0.191691 270.965 0.235423 258.517C0.23749 257.928 0.667331 257.34 1.01267 256.46C7.50381 256.46 13.9349 256.46 21.113 256.46C21.113 262.964 21.1128 269.564 21.113 276.165C21.1132 280.996 20.8391 285.851 21.2706 290.644C21.4125 292.219 23.3594 294.897 24.5206 294.919C35.8291 295.128 47.1462 294.887 58.4603 294.737C58.9086 294.731 59.3519 294.347 60.0644 294.015C60.0644 281.628 60.0644 269.164 60.0644 256.613C66.7259 256.613 73.0957 256.613 79.8242 256.613C79.975 257.329 80.3213 258.232 80.3333 259.139C80.5808 277.929 80.8441 296.719 80.9887 315.511C81.0867 328.24 81.0074 340.97 81.0074 354.088C74.1778 354.088 67.4615 354.088 60.0687 354.088C60.0687 340.636 60.0687 327.082 60.0687 313.209C47.1699 313.209 34.4413 313.209 21.2171 313.209C21.2171 326.857 21.2171 340.432 21.2171 354.232C14.1013 354.232 7.47303 354.232 0.958354 354.232C0.958354 347.782 0.958355 341.3 0.869487 334.36Z" fill="#FAF7F6"/>
<path d="M197.373 200.707C191.217 198.043 185.442 195.546 178.921 192.727C169.805 200.785 157.94 204.183 145.095 199.85C139.637 198.008 134.614 193.741 130.531 189.485C128.778 187.657 129.922 183.051 129.749 179.701C135.326 179.264 137.895 181.469 140.822 184.449C150.426 194.225 167.473 191.694 172.059 179.513C174.022 174.3 174.105 168.33 174.641 162.665C174.756 161.443 173.423 159.7 172.279 158.811C167.893 155.401 163.326 152.222 158.801 148.991C149.058 142.033 150.483 126.183 161.459 120.443C174.68 113.528 187.287 114.005 199.935 121.356C209.473 126.9 210.948 140.878 202.53 148.001C198.5 151.412 193.959 154.233 189.565 157.196C186.661 159.155 184.556 161.099 185.828 165.197C186.641 167.818 186.443 170.757 186.669 173.556C187.296 181.328 191.405 187.167 198.525 189.339C206.187 191.675 213.936 190.467 219.983 184.164C221.239 182.856 222.329 180.808 223.821 180.449C225.841 179.962 229.265 180.007 230.115 181.214C231.331 182.942 231.855 186.67 230.777 188.244C225.642 195.739 218.409 200.531 209.177 201.389C205.418 201.738 201.565 201.076 197.373 200.707Z" fill="#F8F7F6"/>
<path d="M138.929 347.948C134.73 357.932 131.506 368.053 123.839 375.675C115.457 384.007 105.525 386.606 94.0516 383.438C94.0516 378.858 93.8321 374.47 94.2165 370.136C94.305 369.138 96.4842 367.533 97.6674 367.563C102.506 367.684 106.839 366.87 110.558 363.507C115.291 359.224 118.175 354.822 115.113 347.96C108.898 334.034 103.186 319.883 97.2831 305.818C94.0342 298.077 90.8178 290.322 87.433 282.205C95.0367 282.205 101.844 282.205 109.003 282.205C115.084 297.634 121.181 313.102 127.767 329.812C129.954 323.457 131.958 317.951 133.743 312.375C136.576 303.524 139.338 294.648 141.966 285.734C142.746 283.086 144.001 281.927 146.876 282.038C152.158 282.242 157.454 282.097 163.506 282.097C155.207 304.272 147.106 325.918 138.929 347.948Z" fill="#F8F5F5"/>
<path d="M254.444 280.535C261.293 281.49 268.06 282.506 271.932 288.051C275.203 292.736 278.606 298.455 278.9 303.882C279.798 320.471 279.226 337.14 279.226 354.12C272.73 354.12 266.677 354.12 260.658 354.12C260.099 352.333 259.578 350.669 258.975 348.738C249.119 357.84 238.226 358.864 226.747 353.704C220.61 350.945 216.537 345.61 215.817 338.974C214.591 327.674 217.226 317.914 228.903 312.591C235.962 309.373 243.286 307.963 250.909 307.635C254.031 307.501 257.163 307.613 260.288 307.613C260.217 298.947 256.098 297.851 248.57 296.619C241.148 295.404 234.146 297.863 227.463 301.047C226.438 301.535 225.41 302.017 223.671 302.838C223.671 297.49 223.555 292.558 223.78 287.641C223.82 286.761 225.12 285.629 226.101 285.152C234.927 280.861 244.284 279.503 254.444 280.535ZM247.087 340.712C256.853 338.185 260.988 332.702 260.679 322.759C254.451 320.372 248.283 320.649 242.196 323.18C236.934 325.368 235.432 329.578 236.816 334.694C237.342 336.637 238.916 338.685 240.598 339.808C242.069 340.791 244.361 340.544 247.087 340.712Z" fill="#F9F7F6"/>
<path d="M308.505 352.827C307.195 353.591 306.082 354.362 304.954 354.386C299.149 354.511 293.34 354.444 287.102 354.444C287.602 353.191 287.817 352.117 288.392 351.297C295.653 340.946 302.843 330.54 310.349 320.368C312.338 317.672 312.074 316.129 310.17 313.577C302.629 303.467 295.39 293.13 287.479 282.097C295.008 282.097 301.718 282.009 308.422 282.185C309.521 282.214 310.949 283.155 311.614 284.103C315.957 290.292 320.131 296.599 324.695 303.363C328.86 296.951 332.821 290.743 336.928 284.633C337.649 283.56 338.957 282.2 340.036 282.161C346.475 281.93 352.927 282.047 360.566 282.047C355.982 288.609 352.048 294.36 347.985 300.017C344.724 304.558 341.441 309.097 337.905 313.421C335.82 315.971 336.923 317.83 338.377 319.928C345.579 330.32 352.762 340.726 359.928 351.143C360.453 351.906 360.789 352.798 361.623 354.436C354.077 354.436 347.14 354.83 340.303 354.179C338.424 354 336.614 350.857 335.167 348.797C331.32 343.32 327.688 337.693 323.69 331.705C318.441 338.981 313.569 345.735 308.505 352.827Z" fill="#F9F7F6"/>
<path d="M214.537 282.865C214.723 289.154 214.723 295.046 214.723 301.302C207.041 299.216 199.888 297.731 193.751 302.96C191.853 304.577 190.091 307.548 190.036 309.939C189.697 324.607 189.866 339.287 189.866 354.218C182.734 354.218 176.475 354.218 169.796 354.218C169.796 330.376 169.796 306.637 169.796 282.486C175.2 282.486 180.91 282.486 186.886 282.486C187.185 284.464 187.517 286.664 187.94 289.458C195.611 281.577 203.998 277.994 214.537 282.865Z" fill="#F9F7F6"/>
<path d="M106.308 105.669C106.282 101.392 105.643 97.372 106.453 93.6686C108.463 84.4706 118.63 80.9846 126.092 86.7221C135.087 93.6387 135.138 108.301 125.484 116.36C122.349 118.977 115.797 118.371 112.233 114.917C109.749 112.51 108.278 109.057 106.308 105.669Z" fill="#F6F5F4"/>
<path d="M254.848 104.359C253.83 106.855 253.058 109.019 251.95 110.994C247.251 119.365 235.633 119.881 230.796 110.948C226.447 102.914 227.478 92.5013 233.564 86.9469C237.755 83.1206 242.643 83.2237 246.951 84.8293C251.735 86.6122 254.465 91.1429 254.944 96.4773C255.166 98.9448 254.955 101.451 254.848 104.359Z" fill="#F6F5F3"/>
<path d="M184.821 224.971C175.903 225.114 167.423 225.404 159.856 220.665C158.511 219.822 156.841 218.888 156.264 217.58C155.487 215.817 155.625 213.651 155.37 211.657C157.199 211.545 159.353 210.744 160.807 211.428C173.674 217.48 186.384 216.92 199.239 211.419C200.735 210.779 202.837 211.555 204.657 211.674C204.359 213.782 204.82 216.605 203.628 217.873C198.757 223.053 192.103 224.374 184.821 224.971Z" fill="#F3F2F1"/>
<path d="M123.319 164.073C127.317 163.513 130.877 162.957 134.446 162.458C137.475 162.035 140.937 161.632 141.682 165.523C142.466 169.613 138.578 170.291 135.903 170.845C128.174 172.444 120.325 173.452 112.573 174.952C109.369 175.572 106.329 177.004 103.146 177.787C100.545 178.426 97.8425 178.648 94.9909 179.085C93.9072 173.101 96.9544 171.188 101.065 170.064C108.338 168.076 115.611 166.09 123.319 164.073Z" fill="#EFEEEE"/>
<path d="M265.226 176.664C262.887 177.507 260.193 178.962 258.295 178.261C247.539 174.288 236.534 171.878 225.127 170.774C222.501 170.52 220.083 168.102 217.584 166.689C221.288 159.407 226.615 162.537 230.688 163.278C240.485 165.059 250.147 167.659 259.772 170.266C262.507 171.006 266.271 171.71 265.226 176.664Z" fill="#F0EFEE"/>
</svg>
